<?xml version="1.0" encoding="UTF-8" standalone="no"?>
<!-- Generator: Adobe Illustrator 23.0.4, SVG Export Plug-In . SVG Version: 6.00 Build 0)  -->

<svg
   xmlns:dc="http://purl.org/dc/elements/1.1/"
   xmlns:cc="http://creativecommons.org/ns#"
   xmlns:rdf="http://www.w3.org/1999/02/22-rdf-syntax-ns#"
   xmlns:svg="http://www.w3.org/2000/svg"
   xmlns="http://www.w3.org/2000/svg"
   xmlns:sodipodi="http://sodipodi.sourceforge.net/DTD/sodipodi-0.dtd"
   xmlns:inkscape="http://www.inkscape.org/namespaces/inkscape"
   version="1.1"
   id="Ebene_1"
   x="0px"
   y="0px"
   width="228"
   height="75"
   viewBox="0 0 228 75.000001"
   xml:space="preserve"
   sodipodi:docname="audeering.svg"
   inkscape:version="0.92.3 (2405546, 2018-03-11)"><metadata
   id="metadata113"><rdf:RDF><cc:Work
       rdf:about=""><dc:format>image/svg+xml</dc:format><dc:type
         rdf:resource="http://purl.org/dc/dcmitype/StillImage" /><dc:title>audeering-cmyk</dc:title></cc:Work></rdf:RDF></metadata><defs
   id="defs111" /><sodipodi:namedview
   pagecolor="#ffffff"
   bordercolor="#666666"
   borderopacity="1"
   objecttolerance="10"
   gridtolerance="10"
   guidetolerance="10"
   inkscape:pageopacity="0"
   inkscape:pageshadow="2"
   inkscape:window-width="1509"
   inkscape:window-height="714"
   id="namedview109"
   showgrid="false"
   inkscape:zoom="2.9576194"
   inkscape:cx="100.86719"
   inkscape:cy="14.35"
   inkscape:window-x="249"
   inkscape:window-y="92"
   inkscape:window-maximized="0"
   inkscape:current-layer="Ebene_1"
   inkscape:pagecheckerboard="true"
   scale-x="1.4" />
<style
   type="text/css"
   id="style2">
	.st0{fill:#AE1615;}
	.st1{fill:#283533;}
	.st2{fill:#4A4A49;}
</style>
<title
   id="title4">audeering-cmyk</title>
<g
   id="g12"
   style="fill:#ffffff;fill-opacity:1"
   transform="matrix(1.9961071,0,0,1.9961071,3.0082223,3.2127569)">
	<path
   class="st0"
   d="M 0.8,8 V 8 H 0.1 L 0.2,8.2 C 1.3,9.4 2,11 2.1,12.7 1.9,14.3 1.3,15.9 0.3,17.2 L 0.2,17.4 H 0.8 L 0.9,17.3 C 2.4,15.7 3.2,14.2 3.2,12.7 3,10.9 2.2,9.2 0.8,8 Z"
   id="path6"
   style="fill:#ffffff;fill-opacity:1"
   inkscape:connector-curvature="0" />
	<path
   class="st0"
   d="m 4.1,5.6 v 0 H 3.3 l 0.1,0.2 c 0.9,1.2 2.5,3.7 2.5,6 0,2 -1.1,4 -2.4,6.1 L 3.4,18 H 4.1 4.2 C 6.7,15.4 7.3,13.2 7.3,11.9 7.2,9.3 5.5,7.1 4.1,5.6 Z"
   id="path8"
   style="fill:#ffffff;fill-opacity:1"
   inkscape:connector-curvature="0" />
	<path
   class="st0"
   d="m 7.8,0.8 v 0 H 6.7 L 6.8,1 c 1.1,1.5 3.8,5.4 3.8,9.1 0,3.3 -2,6.5 -3.6,9.1 l -0.1,0.2 h 0.9 l 0.1,-0.1 c 3,-3.1 4.5,-6.2 4.5,-9.1 C 12.4,6.3 9.9,3 7.8,0.8 Z"
   id="path10"
   style="fill:#ffffff;fill-opacity:1"
   inkscape:connector-curvature="0" />
</g>
<g
   id="g20"
   style="fill:#ffffff;fill-opacity:1"
   transform="matrix(1.9961071,0,0,1.9961071,3.0082223,3.2127569)">
	<path
   class="st0"
   d="m 23.6,4.9 c 0,0 0,0 0,0 -1.1,0 -2.3,0.2 -3.3,0.7 h -0.1 v 0.1 c 0.1,0.2 0.1,0.3 0.2,0.5 0,0.1 0.1,0.2 0.1,0.3 v 0.1 h 0.1 C 21.5,6.2 22.4,6 23.4,6 25,6 25.5,6.2 25.5,8.9 25,9.4 24.6,9.4 22.6,9.4 c -2.1,0 -3.2,1.1 -3.2,3 0,1.9 1,3.1 2.6,3.1 0.1,0 0.1,0 0.2,0 1.1,0 2.1,-0.3 3.1,-0.8 l 0.6,0.7 h 1 V 8.9 c 0.2,-2.7 -0.9,-4 -3.3,-4 z m -0.8,9.6 c -1,-0.1 -1.8,-1 -1.8,-2 0,-2 1.1,-2 2,-2 0.9,0 1.8,-0.1 2.6,-0.3 v 3.2 c -0.7,0.7 -1.6,1.1 -2.5,1.1 -0.1,0 -0.2,0 -0.3,0 z"
   id="path14"
   style="fill:#ffffff;fill-opacity:1"
   inkscape:connector-curvature="0" />
	<path
   class="st0"
   d="m 36.2,11.4 c -0.1,1.8 -1.6,3.3 -3.4,3.3 0,0 0,0 -0.1,0 -1.5,0 -2.1,-0.8 -2.1,-2.9 V 5.5 5.4 h -1.5 v 6.2 c 0,3.4 1.8,4.2 3.2,4.2 0,0 0,0 0,0 0.1,0 0.2,0 0.3,0 1.5,0 2.8,-0.8 3.5,-2.1 l 0.1,1.7 h 1.3 v -10 h -1.4 v 6 z"
   id="path16"
   style="fill:#ffffff;fill-opacity:1"
   inkscape:connector-curvature="0" />
	<path
   class="st0"
   d="M 46.8,0.1 V 5.6 C 45.8,5.2 44.8,5 43.7,5 c -1.2,0 -4,0.5 -4,5.4 0,4.6 2.4,5.3 3.9,5.3 0.1,0 0.2,0 0.3,0 1.1,0 2.2,-0.5 2.9,-1.4 0,0.4 0,0.7 0.1,1.1 v 0.1 h 1.4 V 0.1 Z m 0,6.7 V 11 c 0,2.4 -1,3.5 -3.2,3.5 -2,0 -2.4,-2.3 -2.4,-4.3 v -0.1 c 0,-0.7 0,-2.6 1,-3.6 0.4,-0.3 0.9,-0.5 1.5,-0.5 1.1,0.1 2.1,0.4 3.1,0.8 z"
   id="path18"
   style="fill:#ffffff;fill-opacity:1"
   inkscape:connector-curvature="0" />
</g>
<g
   id="g46"
   style="fill:#ffffff;fill-opacity:1"
   transform="matrix(1.9961071,0,0,1.9961071,3.0082223,3.2127569)">
	<rect
   x="19.700001"
   y="22.200001"
   class="st0"
   width="0.60000002"
   height="4.9000001"
   id="rect22"
   style="fill:#ffffff;fill-opacity:1" />
	<path
   class="st0"
   d="m 23.1,23.4 c -0.5,0 -1,0.3 -1.3,0.6 v -0.5 h -0.6 v 3.6 h 0.6 v -2.3 c 0,-0.5 0.5,-0.9 1,-0.9 0.5,0 0.8,0.3 0.8,1 v 2.2 h 0.6 V 25 c 0.1,-1 -0.3,-1.6 -1.1,-1.6 z"
   id="path24"
   style="fill:#ffffff;fill-opacity:1"
   inkscape:connector-curvature="0" />
	<path
   class="st0"
   d="m 25.9,22.5 h -0.5 v 0.1 c 0,0.2 0,0.3 -0.1,0.5 0,0.2 0,0.3 -0.1,0.4 H 24.5 V 24 h 0.7 v 2.4 c 0,0.7 0.3,0.9 0.7,0.9 0.2,0 0.4,0 0.7,-0.1 h 0.1 v -0.5 l -0.1,0.1 c -0.1,0.1 -0.3,0.1 -0.4,0.1 -0.3,0 -0.3,0 -0.3,-0.6 V 24 h 0.9 v -0.5 h -0.9 z"
   id="path26"
   style="fill:#ffffff;fill-opacity:1"
   inkscape:connector-curvature="0" />
	<path
   class="st0"
   d="m 28.7,23.4 c -1.1,0 -1.6,0.7 -1.6,2 0,1.3 0.5,1.8 1.6,1.8 0.4,0 0.9,-0.1 1.4,-0.6 l 0.1,-0.1 -0.1,-0.1 c 0,0 0,0 -0.1,-0.1 0,0 -0.1,-0.1 -0.2,-0.2 L 29.7,26 29.6,26.1 c -0.1,0.1 -0.4,0.5 -0.9,0.5 -0.9,0 -1,-0.5 -1,-1.4 h 2.5 v -0.1 c 0,-0.7 -0.1,-1.2 -0.5,-1.5 -0.2,0 -0.5,-0.2 -1,-0.2 z m -0.9,1.5 c 0,-0.3 0.2,-1 1,-1 0.3,0 0.5,0.1 0.7,0.3 0.1,0.2 0.2,0.4 0.2,0.7 z"
   id="path28"
   style="fill:#ffffff;fill-opacity:1"
   inkscape:connector-curvature="0" />
	<rect
   x="30.799999"
   y="21.700001"
   class="st0"
   width="0.60000002"
   height="5.4000001"
   id="rect30"
   style="fill:#ffffff;fill-opacity:1" />
	<rect
   x="32.299999"
   y="21.700001"
   class="st0"
   width="0.60000002"
   height="5.4000001"
   id="rect32"
   style="fill:#ffffff;fill-opacity:1" />
	<rect
   x="33.700001"
   y="21.700001"
   class="st0"
   width="0.69999999"
   height="0.69999999"
   id="rect34"
   style="fill:#ffffff;fill-opacity:1" />
	<rect
   x="33.900002"
   y="23.5"
   class="st0"
   width="0.60000002"
   height="3.5999999"
   id="rect36"
   style="fill:#ffffff;fill-opacity:1" />
	<path
   class="st0"
   d="m 37.9,23.9 c -0.2,-0.2 -0.4,-0.3 -0.7,-0.4 -0.5,-0.1 -1,0 -1.4,0.3 -0.4,0.3 -0.7,0.9 -0.7,1.4 0,0.5 0.1,1.1 0.5,1.6 0.3,0.3 0.7,0.4 1.2,0.4 0.4,0 0.7,-0.1 1,-0.4 V 27 c 0,0.1 0,0.5 -0.3,0.8 -0.2,0.2 -0.4,0.3 -0.8,0.3 -0.2,0 -0.5,-0.1 -0.7,-0.2 -0.1,-0.1 -0.2,-0.2 -0.3,-0.3 l -0.1,-0.1 -0.4,0.3 0.1,0.1 c 0.4,0.4 0.8,0.6 1.4,0.6 1.5,0 1.6,-1.1 1.6,-1.5 v -3.6 h -0.5 z m -1.1,2.9 c -0.5,0 -1.1,-0.2 -1.1,-1.5 0,-0.6 0.1,-1 0.4,-1.2 0.2,-0.2 0.4,-0.2 0.6,-0.2 0,0 0,0 0,0 v 0 c 0.4,0 1,0 1,1.4 0.1,1.5 -0.6,1.5 -0.9,1.5 z"
   id="path38"
   style="fill:#ffffff;fill-opacity:1"
   inkscape:connector-curvature="0" />
	<path
   class="st0"
   d="m 40.5,23.4 c -1.1,0 -1.6,0.7 -1.6,2 0,1.3 0.5,1.8 1.6,1.8 0.4,0 0.9,-0.1 1.4,-0.6 L 42,26.5 41.9,26.4 c 0,0 0,0 -0.1,-0.1 0,0 -0.1,-0.1 -0.2,-0.2 L 41.5,26 41.4,26.1 c -0.1,0.1 -0.4,0.5 -0.9,0.5 -0.9,0 -1,-0.5 -1,-1.4 H 42 v -0.1 c 0,-0.7 -0.1,-1.2 -0.5,-1.5 -0.2,0 -0.5,-0.2 -1,-0.2 z m -0.9,1.5 c 0,-0.3 0.2,-1 1,-1 0.3,0 0.5,0.1 0.7,0.3 0.1,0.2 0.2,0.4 0.2,0.7 z"
   id="path40"
   style="fill:#ffffff;fill-opacity:1"
   inkscape:connector-curvature="0" />
	<path
   class="st0"
   d="m 44.4,23.4 c -0.5,0 -1,0.3 -1.3,0.6 v -0.5 h -0.6 v 3.6 h 0.6 v -2.3 c 0,-0.5 0.5,-0.9 1,-0.9 0.5,0 0.8,0.3 0.8,1 v 2.2 h 0.6 V 25 c 0,-1 -0.4,-1.6 -1.1,-1.6 z"
   id="path42"
   style="fill:#ffffff;fill-opacity:1"
   inkscape:connector-curvature="0" />
	<path
   class="st0"
   d="m 48.1,24 v -0.5 h -0.9 v -1 h -0.5 v 0.1 c 0,0.2 0,0.3 -0.1,0.5 0,0.2 0,0.3 -0.1,0.4 H 45.8 V 24 h 0.7 v 2.4 c 0,0.7 0.3,0.9 0.7,0.9 0.2,0 0.4,0 0.7,-0.1 H 48 v -0.5 -0.1 c -0.1,0.1 -0.3,0.1 -0.4,0.1 -0.3,0 -0.3,0 -0.3,-0.6 V 24 Z"
   id="path44"
   style="fill:#ffffff;fill-opacity:1"
   inkscape:connector-curvature="0" />
</g>
<g
   id="g86"
   style="fill:#ffffff;fill-opacity:1"
   transform="matrix(1.9961071,0,0,1.9961071,3.0082223,3.2127569)">
	<path
   class="st1"
   d="M 52.7,22.2 H 51.9 L 50,27.1 h 0.6 l 0.7,-1.8 h 1.8 l 0.6,1.8 h 0.7 z m -1.2,2.7 0.8,-2.1 0.7,2.1 z"
   id="path48"
   style="fill:#ffffff;fill-opacity:1"
   inkscape:connector-curvature="0" />
	<path
   class="st1"
   d="m 57.2,25.7 c 0,0.7 -0.6,1.1 -1.2,1.1 -0.5,0 -0.7,-0.3 -0.7,-1 v -2.3 h -0.6 v 2.2 c 0,1.3 0.7,1.5 1.2,1.5 0.6,0 1,-0.2 1.3,-0.6 v 0.5 h 0.6 v -3.6 h -0.6 z"
   id="path50"
   style="fill:#ffffff;fill-opacity:1"
   inkscape:connector-curvature="0" />
	<path
   class="st1"
   d="m 60.9,23.6 c -0.5,-0.2 -0.9,-0.2 -1,-0.2 -0.3,0 -1.4,0.1 -1.4,1.9 0,1.7 0.9,1.9 1.4,1.9 0.4,0 0.8,-0.1 1.1,-0.4 0,0.1 0,0.1 0,0.2 0,0 0,0 0,0.1 v 0.1 h 0.6 V 21.7 H 61 v 1.9 z m -1,0.3 c 0.3,0 0.8,0.1 1,0.3 v 1.4 c 0,0.8 -0.3,1.2 -1.1,1.2 -0.5,0 -0.8,-0.5 -0.8,-1.5 0,-0.2 0,-0.9 0.3,-1.2 0.2,-0.2 0.4,-0.2 0.6,-0.2 z"
   id="path52"
   style="fill:#ffffff;fill-opacity:1"
   inkscape:connector-curvature="0" />
	<rect
   x="62.299999"
   y="23.5"
   class="st1"
   width="0.60000002"
   height="3.5999999"
   id="rect54"
   style="fill:#ffffff;fill-opacity:1" />
	<rect
   x="62.200001"
   y="21.700001"
   class="st1"
   width="0.69999999"
   height="0.69999999"
   id="rect56"
   style="fill:#ffffff;fill-opacity:1" />
	<path
   class="st1"
   d="m 65.1,23.4 c -1.1,0 -1.6,0.6 -1.6,1.9 0,1.2 0.6,1.9 1.7,1.9 1.2,0 1.6,-0.6 1.6,-1.9 0.1,-1.2 -0.5,-1.9 -1.7,-1.9 z m 0.1,3.4 c -0.5,0 -1.1,-0.1 -1.1,-1.5 0,-0.6 0.1,-1 0.3,-1.2 0.2,-0.2 0.4,-0.2 0.7,-0.2 0,0 0,0 0,0 0.4,0 1,0 1,1.4 0.1,1.5 -0.5,1.5 -0.9,1.5 z"
   id="path58"
   style="fill:#ffffff;fill-opacity:1"
   inkscape:connector-curvature="0" />
	<polygon
   class="st1"
   points="71.7,22.7 71.7,22.2 68.8,22.2 68.8,27.1 71.8,27.1 71.8,26.7 69.4,26.7 69.4,24.9 71.1,24.9 71.1,24.4 69.4,24.4 69.4,22.7 "
   id="polygon60"
   style="fill:#ffffff;fill-opacity:1" />
	<path
   class="st1"
   d="m 74.3,23.4 c -0.5,0 -1,0.3 -1.3,0.6 v -0.5 h -0.6 v 3.6 H 73 v -2.3 c 0,-0.5 0.5,-0.9 1,-0.9 0.5,0 0.8,0.3 0.8,1 v 2.2 h 0.6 V 25 C 75.5,24 75,23.4 74.3,23.4 Z"
   id="path62"
   style="fill:#ffffff;fill-opacity:1"
   inkscape:connector-curvature="0" />
	<path
   class="st1"
   d="m 78.7,23.9 c -0.2,-0.3 -0.5,-0.4 -1.2,-0.4 -1.1,0 -1.6,0.6 -1.6,1.9 0,1.2 0.6,2 1.7,2 0.4,0 0.7,-0.1 1,-0.4 v 0.2 c 0,0.1 0,0.5 -0.3,0.8 -0.2,0.2 -0.4,0.3 -0.8,0.3 -0.2,0 -0.5,-0.1 -0.7,-0.2 C 76.7,28 76.6,27.9 76.5,27.8 L 76.4,27.7 76,28 l 0.1,0.1 c 0.4,0.4 0.8,0.6 1.4,0.6 1.5,0 1.6,-1.1 1.6,-1.5 v -3.6 h -0.5 z m -1,2.9 c -0.5,0 -1.1,-0.2 -1.1,-1.5 0,-0.6 0.1,-1 0.4,-1.2 0.2,-0.2 0.4,-0.2 0.6,-0.2 0,0 0,0 0,0 v 0 c 0.4,0 1,0 1,1.4 0,1.5 -0.6,1.5 -0.9,1.5 z"
   id="path64"
   style="fill:#ffffff;fill-opacity:1"
   inkscape:connector-curvature="0" />
	<rect
   x="79.900002"
   y="21.700001"
   class="st1"
   width="0.69999999"
   height="0.69999999"
   id="rect66"
   style="fill:#ffffff;fill-opacity:1" />
	<rect
   x="80"
   y="23.5"
   class="st1"
   width="0.60000002"
   height="3.5999999"
   id="rect68"
   style="fill:#ffffff;fill-opacity:1" />
	<path
   class="st1"
   d="m 83.3,23.4 c -0.5,0 -1,0.3 -1.3,0.6 v -0.5 h -0.6 v 3.6 H 82 v -2.3 c 0,-0.5 0.5,-0.9 1,-0.9 0.5,0 0.8,0.3 0.8,1 v 2.2 h 0.6 V 25 C 84.5,24 84,23.4 83.3,23.4 Z"
   id="path70"
   style="fill:#ffffff;fill-opacity:1"
   inkscape:connector-curvature="0" />
	<path
   class="st1"
   d="m 86.6,23.4 c -1.1,0 -1.6,0.7 -1.6,2 0,1.3 0.5,1.8 1.6,1.8 0.4,0 0.9,-0.1 1.4,-0.6 l 0.1,-0.1 H 88 c 0,0 0,0 -0.1,-0.1 0,0 -0.1,-0.1 -0.2,-0.2 l -0.1,-0.1 -0.1,0.1 c -0.1,0.1 -0.4,0.5 -0.9,0.5 -0.9,0 -1,-0.5 -1,-1.4 h 2.5 V 25.2 C 88.1,24.5 88,24 87.6,23.7 87.4,23.6 87,23.4 86.6,23.4 Z m -1,1.5 c 0,-0.3 0.2,-1 1,-1 0.3,0 0.5,0.1 0.7,0.3 0.1,0.2 0.2,0.4 0.2,0.7 z"
   id="path72"
   style="fill:#ffffff;fill-opacity:1"
   inkscape:connector-curvature="0" />
	<path
   class="st1"
   d="m 90.1,23.4 c -1.1,0 -1.6,0.7 -1.6,2 0,1.3 0.5,1.8 1.6,1.8 0.4,0 0.9,-0.1 1.4,-0.6 l 0.1,-0.1 -0.1,-0.1 c 0,0 0,0 -0.1,-0.1 0,0 -0.1,-0.1 -0.2,-0.2 L 91.1,26 91,26.3 c -0.1,0.1 -0.4,0.5 -0.9,0.5 -0.9,0 -1,-0.5 -1,-1.4 h 2.5 v -0.1 c 0,-0.7 -0.1,-1.2 -0.5,-1.5 -0.3,-0.2 -0.6,-0.4 -1,-0.4 z m -1,1.5 c 0,-0.3 0.2,-1 1,-1 0.3,0 0.5,0.1 0.7,0.3 0.1,0.2 0.2,0.4 0.2,0.7 z"
   id="path74"
   style="fill:#ffffff;fill-opacity:1"
   inkscape:connector-curvature="0" />
	<path
   class="st1"
   d="m 93.6,23.4 c -0.5,0 -0.7,0.3 -0.9,0.6 l -0.1,-0.5 h -0.5 v 3.6 h 0.6 v -1.7 c 0,-1.1 0.5,-1.5 0.9,-1.5 0.1,0 0.2,0 0.5,0.1 h 0.1 v -0.5 h -0.1 c 0,0 -0.2,-0.1 -0.5,-0.1 z"
   id="path76"
   style="fill:#ffffff;fill-opacity:1"
   inkscape:connector-curvature="0" />
	<rect
   x="94.5"
   y="21.700001"
   class="st1"
   width="0.69999999"
   height="0.69999999"
   id="rect78"
   style="fill:#ffffff;fill-opacity:1" />
	<rect
   x="94.599998"
   y="23.5"
   class="st1"
   width="0.60000002"
   height="3.5999999"
   id="rect80"
   style="fill:#ffffff;fill-opacity:1" />
	<path
   class="st1"
   d="m 97.9,23.4 c -0.5,0 -1,0.3 -1.3,0.6 V 23.5 H 96 v 3.6 h 0.6 v -2.3 c 0,-0.5 0.5,-0.9 1,-0.9 0.5,0 0.8,0.3 0.8,1 v 2.2 H 99 V 25 c 0.1,-1 -0.4,-1.6 -1.1,-1.6 z"
   id="path82"
   style="fill:#ffffff;fill-opacity:1"
   inkscape:connector-curvature="0" />
	<path
   class="st1"
   d="m 102.4,23.5 v 0.3 c -0.2,-0.3 -0.5,-0.4 -1.2,-0.4 -1.1,0 -1.6,0.6 -1.6,1.9 0,1.2 0.6,2 1.7,2 0.4,0 0.7,-0.1 1,-0.4 v 0.2 c 0,0.1 0,0.5 -0.3,0.8 -0.2,0.2 -0.4,0.3 -0.8,0.3 -0.2,0 -0.5,-0.1 -0.7,-0.2 -0.1,-0.1 -0.2,-0.2 -0.3,-0.3 l -0.1,-0.1 -0.4,0.3 0.1,0.1 c 0.4,0.4 0.8,0.6 1.4,0.6 1.5,0 1.6,-1.1 1.6,-1.5 v -3.6 z m -1.1,3.3 c -0.5,0 -1.1,-0.2 -1.1,-1.5 0,-0.6 0.1,-1 0.4,-1.2 0.2,-0.2 0.4,-0.2 0.6,-0.2 0,0 0,0 0,0 v 0 c 0.4,0 1,0 1,1.4 0,1.5 -0.6,1.5 -0.9,1.5 z"
   id="path84"
   style="fill:#ffffff;fill-opacity:1"
   inkscape:connector-curvature="0" />
</g>
<g
   id="g100"
   style="fill:#ffffff;fill-opacity:1"
   transform="matrix(1.9961071,0,0,1.9961071,3.0082223,3.2127569)">
	<polygon
   class="st2"
   points="57,5.1 57,4.3 50.5,4.3 50.5,15.3 57.4,15.3 57.4,14.5 52,14.5 52,10.2 55.6,10.2 55.6,9.3 52,9.3 52,5.1 "
   id="polygon88"
   style="fill:#ffffff;fill-opacity:1" />
	<polygon
   class="st2"
   points="65.7,5.1 65.7,4.3 59.1,4.3 59.1,15.3 66,15.3 66,14.5 60.7,14.5 60.7,10.2 64.3,10.2 64.3,9.3 60.7,9.3 60.7,5.1 "
   id="polygon90"
   style="fill:#ffffff;fill-opacity:1" />
	<path
   class="st2"
   d="M 74.4,10.9 C 74.2,10.4 74,9.9 73.4,9.6 74.5,9.3 75.3,8.2 75.2,7 75.2,5.3 73.8,4.3 71.5,4.3 h -3.8 v 11.1 h 1.5 v -5.3 h 2.6 c 0.6,0 0.8,0.3 1.1,0.9 0,0 0,0.1 0.1,0.2 0.1,0.4 0.5,1.6 1.5,4.1 v 0.1 h 1.6 l -1.6,-4 c 0,-0.2 0,-0.4 -0.1,-0.5 z M 73.8,7.1 c 0,1.3 -0.8,2 -2.2,2 h -2.2 v -4 h 2.2 c 1.9,0.1 2.2,1.3 2.2,2 z"
   id="path92"
   style="fill:#ffffff;fill-opacity:1"
   inkscape:connector-curvature="0" />
	<polygon
   class="st2"
   points="79.6,15.3 79.6,4.3 78.1,4.3 78.1,15.3 "
   id="polygon94"
   style="fill:#ffffff;fill-opacity:1" />
	<polygon
   class="st2"
   points="90.6,15.3 90.6,4.3 89,4.3 89,13.2 84.2,4.3 81.9,4.3 81.9,15.3 83.5,15.3 83.5,5.9 88.7,15.3 "
   id="polygon96"
   style="fill:#ffffff;fill-opacity:1" />
	<path
   class="st2"
   d="m 101.3,10.6 v 3.3 c -0.9,0.6 -2,1 -3.2,0.9 v 0 c -0.4,0 -1.5,0 -2.4,-0.6 -1.2,-0.8 -1.8,-2.2 -1.8,-4.2 0,-2.3 0.7,-5 4,-5 1.4,0.1 2.9,0.5 4.1,1.2 l 0.1,0.1 V 4.6 H 102 C 100.8,4.2 99.4,4 98,4.1 c -3.6,0 -5.8,2.2 -5.8,5.7 0,3.9 2,5.8 6,5.8 1.6,-0.1 3.2,-0.4 4.7,-0.9 h 0.1 v -4.2 h -1.7 z"
   id="path98"
   style="fill:#ffffff;fill-opacity:1"
   inkscape:connector-curvature="0" />
</g>
<g
   id="g106"
   style="fill:#ffffff;fill-opacity:1"
   transform="matrix(1.9961071,0,0,1.9961071,3.0082223,3.2127569)">
	<polygon
   class="st1"
   points="105.5,2.7 105.5,5.6 106,5.6 106,2.7 107.1,2.7 107.1,2.3 104.3,2.3 104.3,2.7 "
   id="polygon102"
   style="fill:#ffffff;fill-opacity:1" />
	<path
   class="st1"
   d="m 110.2,2.3 c 0,0 -0.1,0.2 -0.4,0.8 0,0 -0.7,1.6 -0.7,1.6 0,0 -1.1,-2.4 -1.1,-2.4 h -0.7 v 3.3 h 0.5 V 5.5 c 0,-0.5 0,-1 0,-1.5 0,-0.3 0,-0.7 0,-1 l 1.1,2.3 h 0.4 l 1,-2.2 v 2.6 h 0.5 V 2.3 Z"
   id="path104"
   style="fill:#ffffff;fill-opacity:1"
   inkscape:connector-curvature="0" />
</g>
</svg>